<svg width="127" height="61" viewBox="0 0 127 61" fill="none" xmlns="http://www.w3.org/2000/svg">
<path d="M107.462 22.1621H3.44179C2.09323 22.1621 1 23.261 1 24.6167V49.8166C1 51.1723 2.09323 52.2712 3.44179 52.2712H107.462C108.811 52.2712 109.904 51.1723 109.904 49.8166V24.6167C109.904 23.261 108.811 22.1621 107.462 22.1621Z" fill="#FEF102"/>
<path d="M7.21 22.368C6.106 22.368 4.98667 22.2453 3.852 22C2.71733 21.7547 1.72067 21.3943 0.862 20.919L2.702 16.917C3.392 17.3157 4.11267 17.6147 4.864 17.814C5.63067 17.998 6.35133 18.09 7.026 18.09C7.63933 18.09 8.13767 17.9903 8.521 17.791C8.91967 17.5763 9.119 17.262 9.119 16.848C9.119 16.4953 8.97333 16.227 8.682 16.043C8.39067 15.8437 7.9 15.744 7.21 15.744H5.071V12.409L9.234 8.177L9.717 9.994H1.69V5.9H13.696V9.235L9.533 13.467L6.934 11.995H8.36C10.384 11.995 11.925 12.4473 12.983 13.352C14.041 14.2567 14.57 15.422 14.57 16.848C14.57 17.768 14.3093 18.6497 13.788 19.493C13.282 20.3363 12.4847 21.0263 11.396 21.563C10.3227 22.0997 8.92733 22.368 7.21 22.368ZM16.4389 22V5.9H24.3739C26.1679 5.9 27.7473 6.22967 29.1119 6.889C30.4766 7.533 31.5423 8.453 32.3089 9.649C33.0756 10.845 33.4589 12.271 33.4589 13.927C33.4589 15.5983 33.0756 17.0397 32.3089 18.251C31.5423 19.447 30.4766 20.3747 29.1119 21.034C27.7473 21.678 26.1679 22 24.3739 22H16.4389ZM21.8669 17.768H24.1439C24.9106 17.768 25.5776 17.6223 26.1449 17.331C26.7276 17.0397 27.1799 16.6103 27.5019 16.043C27.8239 15.4603 27.9849 14.755 27.9849 13.927C27.9849 13.1143 27.8239 12.4243 27.5019 11.857C27.1799 11.2897 26.7276 10.8603 26.1449 10.569C25.5776 10.2777 24.9106 10.132 24.1439 10.132H21.8669V17.768ZM42.3364 22V5.9H50.0874C51.5901 5.9 52.8857 6.14533 53.9744 6.636C55.0784 7.12667 55.9294 7.832 56.5274 8.752C57.1254 9.65667 57.4244 10.73 57.4244 11.972C57.4244 13.214 57.1254 14.2873 56.5274 15.192C55.9294 16.0967 55.0784 16.802 53.9744 17.308C52.8857 17.7987 51.5901 18.044 50.0874 18.044H45.3494L47.7644 15.721V22H42.3364ZM47.7644 16.319L45.3494 13.858H49.7424C50.4937 13.858 51.0457 13.6893 51.3984 13.352C51.7664 13.0147 51.9504 12.5547 51.9504 11.972C51.9504 11.3893 51.7664 10.9293 51.3984 10.592C51.0457 10.2547 50.4937 10.086 49.7424 10.086H45.3494L47.7644 7.625V16.319ZM59.2046 22V5.9H66.9556C68.4582 5.9 69.7539 6.14533 70.8426 6.636C71.9466 7.12667 72.7976 7.832 73.3956 8.752C73.9936 9.65667 74.2926 10.73 74.2926 11.972C74.2926 13.214 73.9936 14.2873 73.3956 15.192C72.7976 16.0813 71.9466 16.7637 70.8426 17.239C69.7539 17.7143 68.4582 17.952 66.9556 17.952H62.2176L64.6326 15.721V22H59.2046ZM68.8416 22L64.8856 16.135H70.6356L74.6376 22H68.8416ZM64.6326 16.319L62.2176 13.858H66.6106C67.3619 13.858 67.9139 13.6893 68.2666 13.352C68.6346 13.0147 68.8186 12.5547 68.8186 11.972C68.8186 11.3893 68.6346 10.9293 68.2666 10.592C67.9139 10.2547 67.3619 10.086 66.6106 10.086H62.2176L64.6326 7.625V16.319ZM76.3423 22V5.9H81.7703V22H76.3423ZM84.3833 22V5.9H88.8453L97.0333 15.698H94.9633V5.9H100.253V22H95.7913L87.6033 12.202H89.6733V22H84.3833ZM106.365 22V10.109H101.65V5.9H116.508V10.109H111.793V22H106.365Z" fill="white"/>
<path d="M100.843 54.8899C110.831 54.8899 118.928 46.7521 118.928 36.7135C118.928 26.675 110.831 18.5371 100.843 18.5371C90.8555 18.5371 82.7588 26.675 82.7588 36.7135C82.7588 46.7521 90.8555 54.8899 100.843 54.8899Z" fill="#5169FF"/>
<path d="M7.608 48L16.26 28.4H21.72L30.4 48H24.632L17.856 31.116H20.04L13.264 48H7.608ZM12.34 44.192L13.768 40.104H23.344L24.772 44.192H12.34ZM31.9717 48V28.4H40.9317C42.7237 28.4 44.2637 28.6893 45.5517 29.268C46.8584 29.8467 47.8664 30.6867 48.5757 31.788C49.2851 32.8707 49.6397 34.1587 49.6397 35.652C49.6397 37.1267 49.2851 38.4053 48.5757 39.488C47.8664 40.552 46.8584 41.3733 45.5517 41.952C44.2637 42.512 42.7237 42.792 40.9317 42.792H35.0517L37.5157 40.468V48H31.9717ZM44.0957 48L39.2237 40.86H45.1317L50.0317 48H44.0957ZM37.5157 41.056L35.0517 38.508H40.5957C41.7531 38.508 42.6117 38.256 43.1717 37.752C43.7504 37.248 44.0397 36.548 44.0397 35.652C44.0397 34.7373 43.7504 34.028 43.1717 33.524C42.6117 33.02 41.7531 32.768 40.5957 32.768H35.0517L37.5157 30.22V41.056ZM52.6983 48V28.4H57.2623L65.3823 41.728H62.9743L70.8703 28.4H75.4343L75.4903 48H70.3943L70.3383 36.156H71.2063L65.2983 46.068H62.8343L56.7583 36.156H57.8223V48H52.6983Z" fill="#333333"/>
<path d="M96.532 52V40.948L98.476 46.024L87.028 26.8H95.992L103.732 39.94H98.512L106.324 26.8H114.532L103.156 46.024L105.028 40.948V52H96.532Z" fill="white"/>
</svg>
